<svg
  width="80"
  height="80"
  viewBox="0 0 80 80"
  fill="none"
  xmlns="http://www.w3.org/2000/svg"
  role="img"
  aria-labelledby="questly-icon-title"
>
  <title id="questly-icon-title">Questly</title>
  <rect x="6" y="6" width="68" height="68" rx="18" fill="#FF9900" />
  <path
    d="M39 18C27.402 18 18 27.402 18 39C18 50.598 27.402 60 39 60C43.319 60 47.334 58.696 50.672 56.462L59.605 65.395L65.395 59.605L56.462 50.672C58.696 47.334 60 43.319 60 39C60 27.402 50.598 18 39 18ZM39 27H41C47.627 27 53 32.373 53 39C53 45.627 47.627 51 41 51H39C32.373 51 27 45.627 27 39C27 32.373 32.373 27 39 27Z"
    fill="white"
  />
</svg>
