<svg
  width="376"
  height="80"
  viewBox="0 0 376 80"
  fill="none"
  xmlns="http://www.w3.org/2000/svg"
  role="img"
  aria-labelledby="questly-logo-title"
>
  <title id="questly-logo-title">Questly</title>
  <rect x="6" y="8" width="64" height="64" rx="16" fill="#FF9900" />
  <path
    d="M38 22C28.611 22 21 29.611 21 39C21 48.389 28.611 56 38 56C41.712 56 45.146 54.811 47.944 52.792L56 60.848L60.848 56L52.792 47.944C54.811 45.146 56 41.712 56 38C56 29.163 48.837 22 40 22H38ZM38 30H40C44.418 30 48 33.582 48 38C48 42.418 44.418 46 40 46H38C33.582 46 30 42.418 30 38C30 33.582 33.582 30 38 30Z"
    fill="white"
  />
  <text
    x="88"
    y="57"
    fill="#FF9900"
    font-family="Rubik, Arial, sans-serif"
    font-size="52"
    font-weight="800"
  >
    Questly
  </text>
</svg>
