<svg
  width="376"
  height="80"
  viewBox="0 0 376 80"
  fill="none"
  xmlns="http://www.w3.org/2000/svg"
  role="img"
  aria-labelledby="questly-logo-title"
>
  <title id="questly-logo-title">Questly</title>
  <rect x="6" y="8" width="64" height="64" rx="16" fill="#FF9900" />
  <path
    d="M38 22C28.611 22 21 29.611 21 39C21 48.389 28.611 56 38 56C41.712 56 45.146 54.811 47.944 52.792L56 60.848L60.848 56L52.792 47.944C54.811 45.146 56 41.712 56 38C56 29.163 48.837 22 40 22H38ZM38 30H40C44.418 30 48 33.582 48 38C48 42.418 44.418 46 40 46H38C33.582 46 30 42.418 30 38C30 33.582 33.582 30 38 30Z"
    fill="white"
  />
  <path
    d="M116.072 61.12C111.016 61.12 106.536 60.096 102.632 58.048C98.728 56 95.656 53.12 93.416 49.408C91.176 45.696 90.056 41.376 90.056 36.448C90.056 31.52 91.176 27.2 93.416 23.488C95.656 19.776 98.728 16.896 102.632 14.848C106.536 12.8 111.016 11.776 116.072 11.776C121.128 11.776 125.608 12.8 129.512 14.848C133.416 16.896 136.488 19.776 138.728 23.488C140.968 27.2 142.088 31.52 142.088 36.448C142.088 40.224 141.416 43.616 140.072 46.624C138.728 49.632 136.84 52.192 134.408 54.304L141.416 62.272H128.456L124.968 58.336C122.28 60.192 119.312 61.12 116.072 61.12ZM116.072 50.608C117.544 50.608 118.952 50.352 120.296 49.84L113.72 42.4H126.68L127.544 43.36C128.44 41.44 128.888 39.136 128.888 36.448C128.888 32.032 127.736 28.608 125.432 26.176C123.128 23.744 120.008 22.528 116.072 22.528C112.136 22.528 109.016 23.744 106.712 26.176C104.408 28.608 103.256 32.032 103.256 36.448C103.256 40.864 104.408 44.32 106.712 46.816C109.016 49.344 112.136 50.608 116.072 50.608Z"
    fill="#FFFFFF"
  />
  <path
    d="M165.027 61.12C160.483 61.12 156.931 59.84 154.371 57.28C151.811 54.72 150.531 50.944 150.531 45.952V25.024H163.011V44.896C163.011 48.672 164.643 50.56 167.907 50.56C169.763 50.56 171.267 49.984 172.419 48.832C173.571 47.68 174.147 46.08 174.147 44.032V25.024H186.627V60.16H174.723V56.224C172.355 59.488 169.123 61.12 165.027 61.12Z"
    fill="#FFFFFF"
  />
  <path
    d="M213.255 61.12C207.623 61.12 203.015 59.52 199.431 56.32C195.847 53.12 194.055 48.672 194.055 42.976C194.055 39.2 194.855 35.904 196.455 33.088C198.055 30.272 200.295 28.096 203.175 26.56C206.055 25.024 209.383 24.256 213.159 24.256C218.727 24.256 223.047 25.984 226.119 29.44C229.223 32.864 230.775 37.472 230.775 43.264V45.856H206.391C206.807 49.632 209.223 51.52 213.639 51.52C215.303 51.52 217.063 51.264 218.919 50.752C220.775 50.24 222.471 49.472 224.007 48.448L227.127 56.608C225.367 57.984 223.223 59.072 220.695 59.872C218.167 60.704 215.687 61.12 213.255 61.12ZM213.735 32.704C211.879 32.704 210.343 33.28 209.127 34.432C207.943 35.584 207.191 37.28 206.871 39.52H220.263C220.007 35.008 217.831 32.704 213.735 32.704Z"
    fill="#FFFFFF"
  />
  <path
    d="M253.395 61.12C250.067 61.12 246.963 60.8 244.083 60.16C241.235 59.52 238.771 58.544 236.691 57.232L239.811 48.88C241.987 50.096 244.259 51.008 246.627 51.616C248.995 52.192 251.235 52.48 253.347 52.48C255.171 52.48 256.483 52.272 257.283 51.856C258.115 51.408 258.531 50.784 258.531 49.984C258.531 49.28 258.211 48.752 257.571 48.4C256.931 48.016 255.747 47.664 254.019 47.344L248.259 46.288C244.835 45.648 242.243 44.512 240.483 42.88C238.755 41.216 237.891 38.944 237.891 36.064C237.891 33.728 238.563 31.68 239.907 29.92C241.283 28.128 243.235 26.736 245.763 25.744C248.291 24.752 251.267 24.256 254.691 24.256C257.347 24.256 259.939 24.576 262.467 25.216C265.027 25.856 267.267 26.832 269.187 28.144L265.875 36.16C264.275 35.104 262.467 34.288 260.451 33.712C258.467 33.104 256.611 32.8 254.883 32.8C251.491 32.8 249.795 33.632 249.795 35.296C249.795 35.968 250.083 36.512 250.659 36.928C251.235 37.312 252.323 37.664 253.923 37.984L259.683 39.04C263.299 39.68 266.003 40.784 267.795 42.352C269.587 43.92 270.483 46.16 270.483 49.072C270.483 52.752 268.979 55.68 265.971 57.856C262.995 60.032 258.803 61.12 253.395 61.12Z"
    fill="#FFFFFF"
  />
  <path
    d="M293.909 61.12C289.141 61.12 285.573 59.936 283.205 57.568C280.837 55.168 279.653 51.712 279.653 47.2V34.336H273.317V25.024H279.653V14.944H292.133V25.024H302.213V34.336H292.133V46.72C292.133 49.504 293.637 50.896 296.645 50.896C297.573 50.896 298.661 50.704 299.909 50.32L301.733 59.44C299.589 60.56 296.981 61.12 293.909 61.12Z"
    fill="#FFFFFF"
  />
  <path d="M309.926 60.16V10.336H322.406V60.16H309.926Z" fill="#FFFFFF" />
  <path
    d="M334.401 73.12L340.065 59.2L325.857 25.024H338.913L346.257 45.664L354.033 25.024H366.225L346.449 73.12H334.401Z"
    fill="#FFFFFF"
  />
</svg>
